<svg xmlns="http://www.w3.org/2000/svg" viewBox="0 0 619.61 237.83"><g style="isolation:isolate"><g id="圖層_1" data-name="圖層 1"><path d="M459.41,212.87c0,2.32-2.3,4.2-5.13,4.2H436.72c-2.83,0-5.13-1.88-5.13-4.2V77c0-2.31,2.3-4.19,5.13-4.19h17.56c2.83,0,5.13,1.88,5.13,4.19Z" style="fill:none;stroke:#3e3a39;stroke-linecap:round;stroke-linejoin:round;stroke-width:0.6135419999999999px;stroke-dasharray:2.049941301345825,2.049941301345825"/><path d="M444.69,118.21a.81.81,0,0,1-.3.69,1.62,1.62,0,0,1-.95.23l-.68,0-.27-1a5.36,5.36,0,0,0,.92,0,.19.19,0,0,0,.18-.21v-.66h-2a5.35,5.35,0,0,1-.92,2.15l-.86-.83a4.23,4.23,0,0,0,.72-2.62v-2.6h4.19Zm.56-5.56h-5.34v-1H442v-.58h-1.73v-.89H442v-.55H440.1v-1H442v-.86h1.12v.86h2v1h-2v.55h1.72v.89h-1.72v.58h2.09Zm-1.66,2.12v-.53h-1.95v.53Zm0,1.51v-.61h-1.95v.61Zm7.64-1.57h-.66v2h-2.08v1.36a.94.94,0,0,1-.39.83,3.32,3.32,0,0,1-1.77.23l-.27-1.09a4,4,0,0,0,.49,0,2.2,2.2,0,0,0,.64-.06.26.26,0,0,0,.17-.27v-1h-1.69v-1h1.69v-1h-2.2v-1h2.2v-.94h-1.69v-1h4.9v2h.66Zm-.14-6.07a25.38,25.38,0,0,1-5.49.85l-.37-1a22,22,0,0,0,5.18-.72Zm-3.95,2.53-1.07.32a8.36,8.36,0,0,0-.67-1.53l1-.35A10.39,10.39,0,0,1,447.14,111.17Zm1.88,0-1.08.26a8.74,8.74,0,0,0-.57-1.57l1.07-.28A7.63,7.63,0,0,1,449,111.14Zm.45,2.54v-.94h-1v.94Zm0,2v-1h-1v1Zm1.7-6.11a14,14,0,0,1-.85,1.87l-1-.38a11.22,11.22,0,0,0,.8-1.83Z" style="fill:#595757"/><path d="M443.41,126.2c-.27.72-.55,1.42-.85,2.1l-.46.92v8.13H441V131a7.74,7.74,0,0,1-.63.77l-.57-1.19a14.88,14.88,0,0,0,2.48-4.74Zm.61,9.53h-1.13v-7.8H444Zm7.11-1.7H448a5.72,5.72,0,0,1-3.36,3.42l-.73-.9a4.9,4.9,0,0,0,2.9-2.52h-2.4v-1h2.72a8.71,8.71,0,0,0,.17-1.32H445.9a5.36,5.36,0,0,1-.82,1.09l-.92-.63a7.59,7.59,0,0,0,1.51-2.47l1,.32a3.14,3.14,0,0,1-.23.64h4.28v1h-2.3c0,.32-.07.76-.15,1.32h2.82Zm.08-4.58h-6.79v-1h4.28a8,8,0,0,0,.16-1.11h-3.94v-1h5.22a18.7,18.7,0,0,1-.26,2.14h1.33Zm.06,7.36-.87.69a13.31,13.31,0,0,0-2.54-2.25l.78-.79A12.41,12.41,0,0,1,451.27,136.81Z" style="fill:#595757"/><path d="M444.05,154.1h-1.13v-.72h-1.55v1h-1.14v-9.26h3.82Zm-1.13-1.83v-6h-1.55v6Zm8.33,3h-6.84v-1.11h2.8V149h-2.53v-1.1h2.53v-3.66h1.17v3.66h2.54V149h-2.54v5.12h2.87Z" style="fill:#595757"/><path d="M441.62,170.75a10.72,10.72,0,0,1-.81,3.06l-1-.49a11.87,11.87,0,0,0,.82-2.88Zm3.51-.91-1,.39a3.28,3.28,0,0,0-.23-.71,29.52,29.52,0,0,1-3.5.74l-.34-.94a13.53,13.53,0,0,0,2.25-2.75c-.45.1-1.1.21-1.94.31l-.23-.85a14.37,14.37,0,0,0,2.05-3.66l1.1.4a14.51,14.51,0,0,1-1.67,2.87,13.42,13.42,0,0,0,1.39-.23,15.1,15.1,0,0,0,.76-1.43l1.05.48a18.51,18.51,0,0,1-3.16,4.51,9.44,9.44,0,0,0,1.82-.42,3.32,3.32,0,0,0-.29-.64l1-.34A10.79,10.79,0,0,1,445.13,169.84Zm-1.6,3.3-1,.19a8.75,8.75,0,0,0-.42-2.55l1-.14A9.8,9.8,0,0,1,443.53,173.14Zm1.46-1.28-.87.24a8.51,8.51,0,0,0-.43-1.46l.86-.23A6.63,6.63,0,0,1,445,171.86Zm6.22,1.56h-6.74v-1.13h2.85v-8.08h-2.45v-1.13H451v1.13H448.5v8.08h2.71Z" style="fill:#595757"/><path d="M511.94,160.84c0,2.31-2.29,4.19-5.13,4.19H489.26c-2.83,0-5.13-1.88-5.13-4.19V25c0-2.32,2.3-4.2,5.13-4.2h17.55c2.84,0,5.13,1.88,5.13,4.2Z" style="fill:none;stroke:#3e3a39;stroke-linecap:round;stroke-linejoin:round;stroke-width:0.6135419999999999px;stroke-dasharray:2.049940824508667,2.049940824508667"/><path d="M497.66,64h-3.72V71h-1.17V59.89h4.89Zm-1.17-2.5V61h-2.55v.56Zm0,1.51v-.56h-2.55V63Zm5.32,4.86H500V70.7h-1.15V67.88h-1.54a3.92,3.92,0,0,1-1.69,2.85l-1-.78a3,3,0,0,0,1.46-2.07h-1.81V66.79h1.91V65.73h-1.5V64.65h6.73v1.08H500v1.06h1.83Zm-3-1.09V65.73h-1.44v1.06ZM503.39,70a.88.88,0,0,1-.31.71,3.29,3.29,0,0,1-1.74.27l-.47,0-.3-1.24a5.11,5.11,0,0,0,1.12.11.89.89,0,0,0,.45-.07.3.3,0,0,0,.1-.26V64h-3.72V59.89h4.87Zm-1.15-8.44V61H499.7v.56Zm0,1.51v-.56H499.7V63Z" style="fill:#595757"/><path d="M496.66,81.72a8.89,8.89,0,0,1-1,1.61v5.78h-1.15V84.76a14,14,0,0,1-1.44,1.34l-.78-.82a12.63,12.63,0,0,0,3.29-3.87Zm1.14-1.56h-1.47v1h-1.16v-1h-2.74v-1.1h2.74V77.79h1.16v1.27h1.47Zm6,6.1a6.81,6.81,0,0,1-.3,1.92,1.18,1.18,0,0,1-.66.73,7.5,7.5,0,0,1-1.94.15l-1.6,0a1.09,1.09,0,0,1-.86-.44,1.62,1.62,0,0,1-.32-1v-6h1.16v1.8h4.28v1.13h-4.28v3.08a.48.48,0,0,0,.1.23.36.36,0,0,0,.28.15c.12,0,.48,0,1.09,0a6.22,6.22,0,0,0,1.49-.09c.14-.06.24-.33.3-.83s.09-.9.11-1.23Zm0-6.1H501v1h-1.16v-1h-1.5v-1.1h1.5V77.79H501v1.27h2.73Z" style="fill:#595757"/><path d="M494.09,104.36a12.88,12.88,0,0,1-.8,3.06l-1-.44a12.33,12.33,0,0,0,.77-2.9Zm3.14-1.13-.93.42c0-.16-.09-.33-.16-.53q-1.67.43-3.45.75l-.26-1a10.4,10.4,0,0,0,2.2-2.52c-.65.11-1.28.18-1.89.24l-.24-.91a13.21,13.21,0,0,0,2.3-3.85l1.05.4a15.93,15.93,0,0,1-1.91,3.21,11.6,11.6,0,0,0,1.38-.23,10.19,10.19,0,0,0,.54-1l1,.49a15.9,15.9,0,0,1-2.77,3.87,15.48,15.48,0,0,0,1.65-.4,4.47,4.47,0,0,0-.27-.6l.91-.41A10.2,10.2,0,0,1,497.23,103.23Zm-1.4,3.56-1,.27a15.92,15.92,0,0,0-.38-2.78l.92-.22A14.88,14.88,0,0,1,495.83,106.79Zm1.53-.65-.92.28a11.55,11.55,0,0,0-.61-2.34l.9-.27A10.64,10.64,0,0,1,497.36,106.14Zm6.38-7.51h-2.8v1.43h2.55v1.07h-6.13v-1.07h2.41V98.63H497V97.52h2.78V96h1.17v1.51h2.8Zm-.47,8.71H502.1v-.61h-3.32v.61h-1.21v-5h5.7Zm-1.17-1.69v-2.22h-3.32v2.22Z" style="fill:#595757"/><path d="M503.88,124.27l-.59,1a13.63,13.63,0,0,1-4.63-3.23v3.46h-1.17v-3.43a13.57,13.57,0,0,1-4.59,3.12l-.62-1a12.82,12.82,0,0,0,4.42-2.84h-4.33v-1h5.12v-1h-4v-5h9.23v5h-4v1h5.07v1h-4.24A12.43,12.43,0,0,0,503.88,124.27Zm-6.39-7.9v-1h-2.82v1Zm0,2v-1h-2.81v1Zm4.06-2v-1h-2.89v1Zm0,2v-1h-2.89v1Z" style="fill:#595757"/><path d="M565,212.87c0,2.32-2.29,4.2-5.12,4.2H542.32c-2.83,0-5.13-1.88-5.13-4.2V77c0-2.31,2.3-4.19,5.13-4.19h17.56c2.83,0,5.12,1.88,5.12,4.19Z" style="fill:none;stroke:#3e3a39;stroke-linecap:round;stroke-linejoin:round;stroke-width:0.6135419999999999px;stroke-dasharray:2.0499391555786133,2.0499391555786133"/><path d="M548,118.74a28.27,28.27,0,0,1-1.62,4.33l-1-.7a28.3,28.3,0,0,0,1.6-4.32Zm.17-2.28-.74.9a12,12,0,0,0-2-1.58l.75-.9A12.39,12.39,0,0,1,548.2,116.46Zm.07-3.06-.78.91a11,11,0,0,0-1.87-1.86l.81-.89A12.28,12.28,0,0,1,548.27,113.4Zm4.31,6.56h-3l.83.5a11.92,11.92,0,0,1-1.78,2.65l-.93-.67a12.42,12.42,0,0,0,1.72-2.48h-.9v-8h4Zm-1.11-5.67V113h-1.8v1.27Zm0,2.33v-1.31h-1.8v1.31Zm0,2.29v-1.29h-1.8v1.29ZM553,122.4l-1,.44a10.66,10.66,0,0,0-1.11-2.11l1-.51A10.73,10.73,0,0,1,553,122.4Zm1.56-1.79h-1.08v-8.07h1.08Zm2,1.1a1.16,1.16,0,0,1-.41,1,2.71,2.71,0,0,1-1.4.27l-.83,0-.31-1.07a8.73,8.73,0,0,0,1.65,0,.31.31,0,0,0,.21-.34v-9.89h1.09Z" style="fill:#595757"/><path d="M556.82,141H545.51v-.82h5.09v-.59h-4.32v-.73h4.32v-.56h-4.08v-3.17h9.26v3.17H551.7v.56h4.43v.75H551.7v.57h5.12Zm-.1-6.4H545.6v-.9h11.12Zm-1-1.42h-9.26V130h9.26Zm-1.12-2v-.48h-7v.48Zm0,1.23v-.53h-7v.53Zm-4,3.94v-.53h-3v.53Zm0,1.21V137h-3l0,.54Zm4.06-1.21v-.53h-3v.53Zm0,1.21V137h-3v.54Z" style="fill:#595757"/><path d="M556.93,158.3l-.52,1.13a13.65,13.65,0,0,1-4.7-1.91,10,10,0,0,1-3.46-4.19,13.19,13.19,0,0,1-2,6.18l-.92-.81a12.84,12.84,0,0,0,1.75-7.23v-3.15h9v5h-6.63a8.36,8.36,0,0,0,3.32,3.5A14.35,14.35,0,0,0,556.93,158.3Zm-2-6.12v-2.69h-6.59v2.69Z" style="fill:#595757"/><path d="M556.79,169.77h-2.47v6.57a1.1,1.1,0,0,1-.4.88,1.57,1.57,0,0,1-1.08.34c-.89,0-1.52,0-1.91,0l-.43-1.2c.68,0,1.21,0,1.59,0a4.33,4.33,0,0,0,.86,0,.26.26,0,0,0,.15-.27v-6.29h-7.59v-1.18h7.59v-2.36h1.22v2.36h2.47Zm-5.8,4.07-1,.73a19.92,19.92,0,0,0-2.45-3l.94-.77A18.26,18.26,0,0,1,551,173.84Z" style="fill:#595757"/><polyline points="468.72 125.47 475.51 118.69 467.97 111.15" style="fill:none;stroke:#83ae9b;stroke-miterlimit:10;stroke-width:0.904493px;stroke-dasharray:3.6179699897766113;mix-blend-mode:multiply"/><path d="M618.44,160.84c0,2.31-2.3,4.19-5.13,4.19H595.76c-2.84,0-5.13-1.88-5.13-4.19V25c0-2.32,2.29-4.2,5.13-4.2h17.55c2.83,0,5.13,1.88,5.13,4.2Z" style="fill:none;stroke:#3e3a39;stroke-linecap:round;stroke-linejoin:round;stroke-width:0.6135419999999999px;stroke-dasharray:2.0499398708343506,2.0499398708343506"/><path d="M610.17,62h-5v1.75h4.45v1.13H599.51V63.73H604V62H598.9V60.85H604V59.58h1.19v1.27h5Zm-1.08,8.91H607.9v-.61h-6.68v.61h-1.17V66h9Zm-1.19-1.72v-2h-6.68v2Z" style="fill:#595757"/><path d="M602.59,88.19h-1.11V87.6h-1.09v.9h-1.13v-10h3.33Zm-1.11-5.54V79.57h-1.09v3.08Zm0,3.89V83.7h-1.09v2.84Zm8.75-1.67H609v3a1.34,1.34,0,0,1-.19.75.91.91,0,0,1-.48.35,4.74,4.74,0,0,1-1.15.09l-.8,0L606,88c.6,0,1.12,0,1.57,0,.19,0,.28-.11.28-.32V84.87h-4.75v-1h4.75V83H609v.84h1.25Zm-.13-4.78h-2.89V81.5h2.55v1h-6.19v-1h2.5V80.09h-2.84v-1h2.85V77.78h1.12v1.27h2.9Zm-3.81,7-.95.62a12.79,12.79,0,0,0-1.65-1.87l.9-.66A9.45,9.45,0,0,1,606.29,87.13Z" style="fill:#595757"/><path d="M602.71,99.16h-1.14v1.68a9.25,9.25,0,0,0,.94-.54l.11,1.17c-.18.11-.53.32-1,.61v4.15a1.06,1.06,0,0,1-.19.68.94.94,0,0,1-.44.33,4,4,0,0,1-1,.08l-.57,0-.3-1.09a4.85,4.85,0,0,0,1.15,0,.29.29,0,0,0,.17-.28v-3.25q-.39.21-1.26.6l-.29-1.08c.49-.21,1-.45,1.55-.73V99.16H599V98.07h1.42V96h1.15v2.08h1.14Zm7.7,6.83-.65,1a14.47,14.47,0,0,1-2.71-3.32v3.66h-1.14v-3.72a14.35,14.35,0,0,1-3.17,3.33l-.69-1a12.35,12.35,0,0,0,3.27-3.28h-2.51v-1.08h3.1v-.9h1.14v.9h3.2v1.08h-2.66A12.07,12.07,0,0,0,610.41,106Zm-.58-9.06a40.07,40.07,0,0,1-6.45.92l-.44-1.08a32.92,32.92,0,0,0,6.34-.85Zm-4.74,3.76L604,101a14.1,14.1,0,0,0-1-2.37l1-.41A11,11,0,0,1,605.09,100.69Zm2.24-.61-1.08.31a13.17,13.17,0,0,0-.78-2.24l1.12-.34A19,19,0,0,1,607.33,100.08Zm2.87-2a17.09,17.09,0,0,1-1.25,3.09l-1.08-.44a15.13,15.13,0,0,0,1.24-3Z" style="fill:#595757"/><path d="M603.39,125.54h-1.15v-3.21a17.23,17.23,0,0,1-2.87,1.37l-.33-1a.65.65,0,0,0,.22-.47v-7.14h1.12v7a14.76,14.76,0,0,0,1.86-1v-6.87h1.15Zm7-.94-.65,1a9.79,9.79,0,0,1-2.84-1.89,9.38,9.38,0,0,1-2.65,1.88l-.66-1a7.44,7.44,0,0,0,2.56-1.77A8.56,8.56,0,0,1,605,120l1-.5a7.35,7.35,0,0,0,.94,2.38,10.75,10.75,0,0,0,1.21-4.79H606a14.3,14.3,0,0,1-1.52,3.34l-.8-.94a16.54,16.54,0,0,0,1.84-5.41l1.17.15a11.78,11.78,0,0,1-.39,1.73h4v1.13h-.94a11.42,11.42,0,0,1-1.61,5.69A8.07,8.07,0,0,0,610.43,124.6Z" style="fill:#595757"/><polyline points="575.22 125.47 582.01 118.69 574.47 111.15" style="fill:none;stroke:#83ae9b;stroke-miterlimit:10;stroke-width:0.904493px;stroke-dasharray:3.6179699897766113;mix-blend-mode:multiply"/><polyline points="522.11 125.47 528.9 118.69 521.36 111.15" style="fill:none;stroke:#83ae9b;stroke-miterlimit:10;stroke-width:0.904493px;stroke-dasharray:3.6179699897766113;mix-blend-mode:multiply"/><path d="M29,212.87c0,2.32-2.29,4.2-5.12,4.2H6.3c-2.83,0-5.13-1.88-5.13-4.2V77c0-2.31,2.3-4.19,5.13-4.19H23.86C26.69,72.8,29,74.68,29,77Z" style="fill:none;stroke:#3e3a39;stroke-linecap:round;stroke-linejoin:round;stroke-width:0.6135419999999999px;stroke-dasharray:2.049941301345825,2.049941301345825"/><path d="M12.86,117.54c-.35.18-.68.34-1,.47v3.63a1.62,1.62,0,0,1-.26.88c-.17.28-.57.41-1.19.41-.19,0-.41,0-.67,0l-.34-1.08a8.09,8.09,0,0,0,1.2,0c.09,0,.13-.12.13-.28v-3l-1.09.37-.3-1.1c.67-.25,1.13-.42,1.39-.53v-2.45H9.46v-1.13h1.29v-2.07h1.13v2.07h.86v1.13h-.86v1.94a7.55,7.55,0,0,0,.83-.39Zm3.48.29A6.58,6.58,0,0,1,14,123.1l-.85-.86a5,5,0,0,0,1.93-2.79,20.73,20.73,0,0,1-2.05.78l-.48-1a17.39,17.39,0,0,0,2.69-1v-1.06h-2v-1.12h2v-1.54H13.13V113.4h2.08v-1.79h1.13Zm4.45,2.5H18.43V123H17.3V111.61h1.13v1.79H20.7v1.11H18.43v1.75h2v1.1h-2v1.83h2.36Z" style="fill:#595757"/><path d="M14.16,132.6a10.39,10.39,0,0,1-4,7.67l-.74-.92a8,8,0,0,0,2.36-2.58,6.86,6.86,0,0,0,1-3.08h-3V132.6Zm6.71,6.64-.76.95a10.86,10.86,0,0,1-4.26-4.91v4.54a1.4,1.4,0,0,1-.22.86,1,1,0,0,1-.53.39,4.14,4.14,0,0,1-1,.09l-1.06,0L12.66,140c.5,0,.9.07,1.19.07a1.81,1.81,0,0,0,.69-.08.3.3,0,0,0,.14-.3v-9.84h1.17v2.62a9,9,0,0,0,.66,1.85,13.16,13.16,0,0,0,3-3l1,.65A14.8,14.8,0,0,1,17,135.3,10.23,10.23,0,0,0,20.87,139.24Z" style="fill:#595757"/><path d="M15.51,149.47H13v.5h2.08v2.36H13v.1a16.32,16.32,0,0,1,2.07.79l-.46.87a13.67,13.67,0,0,0-1.61-.74v1.35H12v-1.46a7.52,7.52,0,0,1-2.08,1.48l-.58-.84a7.61,7.61,0,0,0,2.25-1.55H9.85V150H12v-.5H9.4v-.9H12V148h1v.57h2.5Zm5.26,9.61H9.44v-1h2v-1.61h1.13v1.61h2V156H9.64V155H20.56V156H15.7v.65H20v.88H15.7v.65h5.07ZM12,151.47v-.66H10.92v.66Zm2.11,0v-.66H13v.66Zm6.79,2.36-.52.92A6.62,6.62,0,0,1,18,153.59a8.76,8.76,0,0,1-2.48,1.11l-.54-.94a8.83,8.83,0,0,0,2.25-.9,4.69,4.69,0,0,1-.67-1.18l.88-.44a4.71,4.71,0,0,0,.59,1,3.8,3.8,0,0,0,.87-2H17.38a11.84,11.84,0,0,1-1.44,1.89l-.68-.8a9.51,9.51,0,0,0,2-3.41l1,.28a8.43,8.43,0,0,1-.44,1.08H20.7v1H20a4.85,4.85,0,0,1-1.13,2.67A5.16,5.16,0,0,0,20.87,153.83Z" style="fill:#595757"/><path d="M13.36,175.13a30,30,0,0,1-3.63,1.6l-.29-1.09a13.18,13.18,0,0,0,1.41-.55v-4.78H9.61v-1.09h1.24v-3H12v3h1.17v1.09H12v4.25a12.17,12.17,0,0,0,1.26-.61Zm7.51,0a3.94,3.94,0,0,1-.33,1.75,1.27,1.27,0,0,1-1,.55,24,24,0,0,1-2.54.09c-1,0-1.61,0-2-.06a1.15,1.15,0,0,1-.81-.38,1.44,1.44,0,0,1-.29-1v-4.14l-.91.36-.14-1.17,1-.43v-2.91h1.13v2.43l1.52-.6v-3.34h1.13v2.87l2.7-1.1a30.86,30.86,0,0,1-.56,5.68l-1.1-.34a24.32,24.32,0,0,0,.48-3.64l-1.52.61v4.88H16.59v-4.4l-1.52.62v4.52c0,.25.09.38.28.41s.78,0,1.78,0,1.69,0,2,0a.5.5,0,0,0,.54-.45,8.7,8.7,0,0,0,.09-1.24Z" style="fill:#595757"/><path d="M81.52,160.84c0,2.31-2.3,4.19-5.13,4.19H58.84c-2.84,0-5.13-1.88-5.13-4.19V25c0-2.32,2.29-4.2,5.13-4.2H76.39c2.83,0,5.13,1.88,5.13,4.2Z" style="fill:none;stroke:#3e3a39;stroke-linecap:round;stroke-linejoin:round;stroke-width:0.6135419999999999px;stroke-dasharray:2.0499398708343506,2.0499398708343506"/><path d="M73.33,70.7H62v-.93h5.12V69H62.55v-.88h4.58v-.69h-3.9v-4h3.9v-.73H62.28v-.88h4.85v-.78c-1.93.07-3.26.1-4,.07l-.38-.92,1.56,0a42.93,42.93,0,0,0,7.76-.68l.55.85c-1.69.28-3.14.46-4.35.55v.88h4.78v.88H68.27v.73h3.87v4H68.27v.69h4.52V69h-4.5v.73h5Zm-6.2-5.65v-.76H64.4v.76Zm0,1.58v-.77H64.4v.77ZM71,65.05v-.76H68.27v.76Zm0,1.58v-.77H68.27v.77Z" style="fill:#595757"/><path d="M73.38,86.32l-.82.83a13.15,13.15,0,0,1-4.3-5.46V86h2.59v1.13H68.26v2.06H67.08V87.09H64.47V86h2.61V81.67a12.78,12.78,0,0,1-4.42,5.43l-.77-.88a13.42,13.42,0,0,0,4.37-5.33h-4V79.74h4.77V77.81h1.18v1.93h4.8v1.15H69A12.6,12.6,0,0,0,73.38,86.32Z" style="fill:#595757"/><path d="M66.53,98.67H64c0,.55,0,1.08,0,1.58h2.2q0,5.81-.32,6.48c-.24.46-.89.65-2,.58l-.33-1.14a7.62,7.62,0,0,0,1.18,0A.26.26,0,0,0,65,106a13.72,13.72,0,0,0,.11-1.61q.06-1.5.06-3H64a14,14,0,0,1-1.28,6.08l-.82-1a8.39,8.39,0,0,0,.87-3.29c.09-1.22.13-2.71.13-4.48H62V97.56h1.79a14.53,14.53,0,0,0-.57-1.45l1.14-.24A13,13,0,0,1,65,97.56h1.58ZM73.36,105a3.13,3.13,0,0,1-.52,1.73,1.78,1.78,0,0,1-1.35.43h-3c-.69,0-1-.46-1-1.3v-3.7l-.77.22-.15-1.07.92-.25V100a3.94,3.94,0,0,1-.36.45l-.87-.73a13.67,13.67,0,0,0,2-3.81l1.09.27a10.22,10.22,0,0,1-.45,1.19h4.33v1.08H68.36a14.12,14.12,0,0,1-.75,1.24h.9v1.09l.95-.25V98.9h1.11v1.28l2.48-.68a15.82,15.82,0,0,1-1,4.86l-1-.37a14.5,14.5,0,0,0,.77-3l-1.25.34v4.11H69.46v-3.78l-.95.25v3.93a.25.25,0,0,0,.18.26,13.45,13.45,0,0,0,1.62,0,9.8,9.8,0,0,0,1.51-.07c.25-.05.39-.48.43-1.29Z" style="fill:#595757"/><path d="M66.26,124.49a1.12,1.12,0,0,1-.27.69,1.2,1.2,0,0,1-1,.34q-.33,0-.66,0l-.45-1.12,1,0c.18,0,.28-.1.28-.3V121a12.59,12.59,0,0,1-1.17,1.3l-.45-.8a10.38,10.38,0,0,1-.84,4.12l-.85-.73a10.21,10.21,0,0,0,.68-3.85v-6.65h3.69Zm-1.06-6.2V115.5H63.63v1.55l.77-.6A18.2,18.2,0,0,1,65.2,118.29Zm0,.92v-.74l-.85.61a15.21,15.21,0,0,0-.72-1.83v3.81A20.28,20.28,0,0,0,65.2,119.21Zm8.18,3.35A9.11,9.11,0,0,1,73.2,124a2.12,2.12,0,0,1-.42,1.12,1.36,1.36,0,0,1-.55.32,10.54,10.54,0,0,1-1.76.08c-.68,0-1.28,0-1.81,0a1.58,1.58,0,0,1-1.1-.36,1.29,1.29,0,0,1-.31-.92v-9.66h5.61v5.76H68.34V124a.3.3,0,0,0,.24.32,13.67,13.67,0,0,0,1.88.07,7.64,7.64,0,0,0,1.29-.06c.16,0,.27-.24.35-.6a9.93,9.93,0,0,0,.14-1.55Zm-3.92-3.43v-3.52H68.34v3.52Zm2.29,0v-3.52H70.62v3.52Z" style="fill:#595757"/><path d="M134.58,212.87c0,2.32-2.29,4.2-5.13,4.2H111.9c-2.83,0-5.13-1.88-5.13-4.2V77c0-2.31,2.3-4.19,5.13-4.19h17.55c2.84,0,5.13,1.88,5.13,4.19Z" style="fill:none;stroke:#3e3a39;stroke-linecap:round;stroke-linejoin:round;stroke-width:0.6135419999999999px;stroke-dasharray:2.0499401092529297,2.0499401092529297"/><path d="M120.44,113.49h-1.5v.64h-1.15v-.64H115v-1h2.77v-.86h1.15v.86h1.5Zm6,3.87h-2.52a16.93,16.93,0,0,1,2.37,1.67l-1,.63a5,5,0,0,0-.78-.64q-5,.3-8.52.33l-.16-1a5.45,5.45,0,0,0,2.52-1H115v-1h5.1v-.65H115.8v-1h4.32V114h1.17v.72h4.29v1h-4.29v.65h5.11Zm0,5.41H115v-1h1.23v-2h8.94v2h1.22Zm-7.48-1v-1h-1.53v1Zm4.21-3.64a3.74,3.74,0,0,0-.63-.37l.61-.4h-2.8a9.06,9.06,0,0,1-1.75,1Zm-1.62,3.64v-1H120v1Zm4.87-8.28h-2.76v.64H122.5v-.64H121v-1h1.51v-.86h1.14v.86h2.76Zm-2.31,8.28v-1h-1.48v1Z" style="fill:#595757"/><path d="M126.33,132.37h-6.26a17,17,0,0,1-1.63,2.36h2.26v-1.65h1.17v1.65h3.71v4.59a1.09,1.09,0,0,1-.24.75,1.11,1.11,0,0,1-.56.38,4.2,4.2,0,0,1-1.14.1l-.74,0-.38-1.26c.45,0,1,0,1.55,0,.23,0,.34-.1.34-.3v-3.16h-2.54v5.42H120.7v-5.42h-2.52v4.67H117v-4.38a11.27,11.27,0,0,1-1.39,1l-.7-1a11.07,11.07,0,0,0,3.79-3.77H115v-1.15h4.31a10,10,0,0,0,.69-1.42l1.15.32c-.15.38-.3.75-.47,1.1h5.65Z" style="fill:#595757"/><path d="M125.91,159.38h-1.15v-.61h-8.09v.61h-1.13V148.27h10.37Zm-1.15-1.71v-8.3h-8.09v8.3Zm-.34-5.66H121.3v1.36h2.37v3.44h-5.89v-3.44h2.39V152h-3.08v-1.07h3.08v-1.16h1.13v1.16h3.12Zm-1.9,3.73v-1.3h-3.58v1.3Z" style="fill:#595757"/><path d="M119.33,176.53a1.12,1.12,0,0,1-.27.69,1.25,1.25,0,0,1-1,.34q-.33,0-.66,0l-.44-1.12,1,0c.18,0,.27-.1.27-.29V173a12.52,12.52,0,0,1-1.17,1.29l-.44-.79a10.45,10.45,0,0,1-.85,4.11l-.84-.73a10.16,10.16,0,0,0,.67-3.84v-6.65h3.7Zm-1.07-6.2v-2.79H116.7v1.55l.77-.6A17.25,17.25,0,0,1,118.26,170.33Zm0,.92v-.75l-.85.62a17.2,17.2,0,0,0-.71-1.83v3.8A18.58,18.58,0,0,0,118.26,171.25Zm8.19,3.35a12.94,12.94,0,0,1-.18,1.39,2.19,2.19,0,0,1-.43,1.12,1.4,1.4,0,0,1-.54.32,10.79,10.79,0,0,1-1.77.08c-.67,0-1.28,0-1.8,0a1.54,1.54,0,0,1-1.1-.36,1.25,1.25,0,0,1-.31-.92v-9.66h5.61v5.76h-4.52V176a.31.31,0,0,0,.23.32,13.67,13.67,0,0,0,1.88.07,6.42,6.42,0,0,0,1.3-.07c.15,0,.27-.23.34-.59a9.93,9.93,0,0,0,.14-1.55Zm-3.93-3.43v-3.52h-1.11v3.52Zm2.29,0v-3.52h-1.13v3.52Z" style="fill:#595757"/><polyline points="38.3 125.47 45.09 118.69 37.55 111.15" style="fill:none;stroke:#83ae9b;stroke-miterlimit:10;stroke-width:0.904493px;stroke-dasharray:3.6179699897766113;mix-blend-mode:multiply"/><path d="M188,160.84c0,2.31-2.3,4.19-5.13,4.19H165.33c-2.83,0-5.12-1.88-5.12-4.19V25c0-2.32,2.29-4.2,5.12-4.2h17.56c2.83,0,5.13,1.88,5.13,4.2Z" style="fill:none;stroke:#3e3a39;stroke-linecap:round;stroke-linejoin:round;stroke-width:0.6135419999999999px;stroke-dasharray:2.049940824508667,2.049940824508667"/><path d="M179.84,69.24h-5.08v1.69H173.6V69.24h-5.07v-1h5.07v-.7h-3.88V63.23h9v4.32h-3.92v.7h5.08Zm-6.17-6.69h-4.41V59.82h4.41Zm-1.14-1V60.8h-2.14v.79ZM173.6,65v-.77h-2.74V65Zm0,1.65v-.77h-2.74v.77Zm5.45-4H174.7V59.82h4.35ZM177.53,65v-.77h-2.77V65Zm0,1.65v-.77h-2.77v.77Zm.39-5V60.8h-2.08v.79Z" style="fill:#595757"/><path d="M171.89,83.7a10.69,10.69,0,0,1-1,.47v3.64a1.53,1.53,0,0,1-.26.87c-.17.28-.57.41-1.19.41-.19,0-.41,0-.67,0L168.46,88a7.27,7.27,0,0,0,1.19,0c.09,0,.13-.12.13-.28v-3l-1.09.38-.3-1.11c.67-.24,1.13-.42,1.39-.53V81h-1.29V79.85h1.29V77.78h1.13v2.07h.86V81h-.86v1.93a5.09,5.09,0,0,0,.83-.39Zm3.49.29A6.57,6.57,0,0,1,173,89.26l-.86-.86a5.06,5.06,0,0,0,1.94-2.78c-.66.28-1.34.54-2.06.78l-.48-1a17.3,17.3,0,0,0,2.69-1V83.33h-2V82.21h2V80.68h-2.08V79.56h2.08V77.78h1.14Zm4.44,2.5h-2.36v2.66h-1.13V77.78h1.13v1.78h2.27v1.12h-2.27v1.74h2v1.11h-2v1.82h2.36Z" style="fill:#595757"/><path d="M172.65,102.45l-.76,1a9.62,9.62,0,0,0-.69-1.18v5.12h-1.11v-4.61a13.81,13.81,0,0,1-1,2l-.74-1.12a10.75,10.75,0,0,0,1.7-3.39h-1.6V99.16h1.62V97.52a10.83,10.83,0,0,1-1.19.19l-.41-1a12.24,12.24,0,0,0,3.36-.78l.59,1a8.36,8.36,0,0,1-1.24.4v1.92h1.12v1.07H171.2v.2C171.68,101,172.16,101.71,172.65,102.45Zm7.18,4.67h-7.5v-1h3.25v-.78H172.7v-.91h2.88v-.72H173V99.58h2.6v-.73h-3.09v-.91h3.09v-.65c-.7,0-1.55.09-2.56.11l-.32-.92a24,24,0,0,0,6.21-.61l.46.89a23.76,23.76,0,0,1-2.73.43v.75h3.09v.91h-3.09v.73h2.57v4.12h-2.57v.72h2.89v.91h-2.89v.78h3.19Zm-4.25-5.91v-.75h-1.52v.75Zm0,1.58v-.74h-1.52v.74Zm2.58-1.58v-.75h-1.52v.75Zm0,1.58v-.74h-1.52v.74Z" style="fill:#595757"/><path d="M173.92,116.43h-1.55v1.1h-1.16v-1.1h-2.7v-1.07h2.7v-1.17h1.16v1.17h1.55Zm5.07,9.11h-1.17v-.69h-7.28v.69h-1.16V118H179Zm-5.4-4.67V119.1h-3.05v1.77Zm0,2.9v-1.84h-3.05v1.84Zm6.24-7.34h-2.69v1.1H176v-1.1h-1.52v-1.07H176v-1.17h1.16v1.17h2.69Zm-2,4.44V119.1h-3.06v1.77Zm0,2.9v-1.84h-3.06v1.84Z" style="fill:#595757"/><polyline points="144.8 125.47 151.58 118.69 144.05 111.15" style="fill:none;stroke:#83ae9b;stroke-miterlimit:10;stroke-width:0.904493px;stroke-dasharray:3.6179699897766113;mix-blend-mode:multiply"/><polyline points="91.69 125.47 98.47 118.69 90.94 111.15" style="fill:none;stroke:#83ae9b;stroke-miterlimit:10;stroke-width:0.904493px;stroke-dasharray:3.6179699897766113;mix-blend-mode:multiply"/><path d="M241.08,212.87c0,2.32-2.29,4.2-5.13,4.2H218.4c-2.83,0-5.13-1.88-5.13-4.2V77c0-2.31,2.3-4.19,5.13-4.19H236c2.84,0,5.13,1.88,5.13,4.19Z" style="fill:none;stroke:#3e3a39;stroke-linecap:round;stroke-linejoin:round;stroke-width:0.6135419999999999px;stroke-dasharray:2.0499401092529297,2.0499401092529297"/><path d="M224.14,118.78a27.57,27.57,0,0,1-1.64,4.28l-1-.76a22.8,22.8,0,0,0,1.6-4.21Zm.15-2.18-.82.9a14.35,14.35,0,0,0-1.95-1.73l.76-.91A13.89,13.89,0,0,1,224.29,116.6Zm.16-3.33-.84.87a13.53,13.53,0,0,0-1.83-1.78l.83-.82A11,11,0,0,1,224.45,113.27ZM233,121a3.5,3.5,0,0,1-.17,1,1,1,0,0,1-.53.6,4.92,4.92,0,0,1-1.52.15,1.84,1.84,0,0,1-1.12-.26,1.23,1.23,0,0,1-.33-1V120h-1.43a2.86,2.86,0,0,1-1,1.88,4.94,4.94,0,0,1-2.15,1.16l-.74-.94c1.61-.42,2.51-1.12,2.71-2.1h-2.09v-1h8.12v1h-2.32v1.5c0,.19.09.29.28.29a5,5,0,0,0,1-.06c.16,0,.25-.39.25-1Zm-4.48-3c-.88.2-2.15.44-3.79.73l-.25-.92,1.54-.25v-.87h-1.36v-.88h1.36v-.6h1.1v.6h1.28v.88h-1.28v.66c.5-.08,1-.18,1.37-.28Zm4.19-3.13h-8.06v-1h3.46v-.66h-3.08v-1h3.08v-.68h1.13v.68h3v1h-3v.66h3.47Zm.14,3.58H229v-.94h1.4v-.82H229v-.88h1.33v-.6h1.09v.6h1.17v.88h-1.17v.82h1.44Z" style="fill:#595757"/><path d="M226.26,132.6a10.39,10.39,0,0,1-4,7.67l-.74-.92a8.13,8.13,0,0,0,2.36-2.58,6.86,6.86,0,0,0,1-3.08h-3V132.6Zm6.71,6.64-.76.95a10.94,10.94,0,0,1-4.27-4.91v4.54a1.48,1.48,0,0,1-.21.86,1.07,1.07,0,0,1-.53.39,4.19,4.19,0,0,1-1,.09l-1.06,0-.35-1.17c.5,0,.89.07,1.19.07a1.81,1.81,0,0,0,.69-.08.3.3,0,0,0,.14-.3v-9.84h1.16v2.62a10.38,10.38,0,0,0,.66,1.85,13,13,0,0,0,3-3l1,.65a15,15,0,0,1-3.46,3.35A10.16,10.16,0,0,0,233,139.24Z" style="fill:#595757"/><path d="M223.94,155.34a25.9,25.9,0,0,1-1.49,4.13l-1-.77a20.18,20.18,0,0,0,1.52-4.08Zm.22-2.28-.77.84a11.26,11.26,0,0,0-1.86-1.74l.75-.9A10.1,10.1,0,0,1,224.16,153.06Zm.13-3.35-.85.82a9.19,9.19,0,0,0-1.67-1.76l.85-.83A11.05,11.05,0,0,1,224.29,149.71Zm8.62,9.16h-6.63v.49h-1.13v-3.63a3.63,3.63,0,0,1-.47.41l-.56-1a7.91,7.91,0,0,0,2-2.45l1.08.31a5.14,5.14,0,0,1-.28.5h1.46c-.14-.27-.23-.42-.25-.46l1.15-.28c.15.28.26.53.35.74h3.07v.89h-3.06V155h2.68v.83h-2.68v.67h2.68v.82h-2.68V158h3.27ZM228,150.1h-1.09v-.56h-2.51v-.9h2.51V148H228Zm.35,2.43h-3.48v-2.11h3.48Zm-1-.78v-.56h-1.38v.56Zm1.21,3.26v-.64h-2.17l-.08.12V155Zm0,1.5v-.67h-2.25v.67Zm0,1.49v-.67h-2.25V158Zm3.91-5.47H229v-2.11h3.49Zm.45-3h-2.48v.56h-1.1V148h1.1v.61h2.48Zm-1.51,2.21v-.56H230v.56Z" style="fill:#595757"/><path d="M223.89,173.48a24.82,24.82,0,0,1-1.63,4.17l-.92-.76a22.55,22.55,0,0,0,1.6-4.07Zm.15-5.31-.83.77a12.68,12.68,0,0,0-1.78-2l.82-.75A11.86,11.86,0,0,1,224,168.17Zm-.09,3.06-.77.79a14.55,14.55,0,0,0-1.75-1.68l.78-.81A14.06,14.06,0,0,1,224,171.23Zm4.29,4.15-.88.58c0-.13-.1-.3-.18-.5a19,19,0,0,1-2.63,1.63l-.41-1a.68.68,0,0,0,.28-.43v-9.06h3.19v5.81h-2.14v3c.42-.25.84-.53,1.27-.84a7,7,0,0,0-.57-1l.88-.49A13.78,13.78,0,0,1,228.24,175.38Zm-1.69-6.44v-1.29h-1.08v1.29Zm0,2.38V170h-1.08v1.37Zm6.38,3.19a8.16,8.16,0,0,1-.32,2.65,1.09,1.09,0,0,1-1,.44,1.72,1.72,0,0,1-1-.2.67.67,0,0,1-.25-.59v-2.52a10.3,10.3,0,0,1-2.53,3.5l-.79-.7A8.74,8.74,0,0,0,230,171.7h-1.78l.36-4h-.48v-1.06h4.51v1.06h-1.19c0,1.21-.12,2.21-.22,3h1.66v1H231a11.54,11.54,0,0,1-.21,1.15h.6v3.51q0,.18.24.18c.15,0,.24,0,.27-.14a19.65,19.65,0,0,0,.13-2.18Zm-2.62-6.86h-.7l-.26,3h.78A25.54,25.54,0,0,0,230.31,167.65Z" style="fill:#595757"/><path d="M294.52,160.84c0,2.31-2.3,4.19-5.13,4.19H271.83c-2.83,0-5.13-1.88-5.13-4.19V25c0-2.32,2.3-4.2,5.13-4.2h17.56c2.83,0,5.13,1.88,5.13,4.2Z" style="fill:none;stroke:#3e3a39;stroke-linecap:round;stroke-linejoin:round;stroke-width:0.6135419999999999px;stroke-dasharray:2.049941062927246,2.049941062927246"/><path d="M276.71,68a14.29,14.29,0,0,1-.64,3l-1-.56a12.51,12.51,0,0,0,.61-2.73Zm3.17-1-1,.34a4.13,4.13,0,0,0-.21-.65c-1.49.4-2.6.66-3.35.78l-.26-1a10.93,10.93,0,0,0,2.27-2.78l-2,.37-.22-.94a10.53,10.53,0,0,0,2-3.7l1.1.45a22.37,22.37,0,0,1-1.45,2.84,11.62,11.62,0,0,0,1.26-.24,9.11,9.11,0,0,0,.71-1.41l1.08.51a20.82,20.82,0,0,1-2.94,4.5,11.17,11.17,0,0,0,1.44-.38l-.24-.58.92-.36A10.33,10.33,0,0,1,279.88,67Zm-1.57,3.31-1,.21A13.82,13.82,0,0,0,277,68l.92-.18A10.44,10.44,0,0,1,278.31,70.32Zm1.63-.37-.94.24a19.38,19.38,0,0,0-.52-2.33l.89-.19A14.54,14.54,0,0,1,279.94,70Zm6.48.35h-4.95v.61h-1.13V64.36a6.82,6.82,0,0,1-.52.61l-.69-1a11.56,11.56,0,0,0,2.1-4.59l1.16.21c-.12.46-.34,1.12-.65,2h1.52a12.57,12.57,0,0,0-.53-1.74l1.08-.3a11.73,11.73,0,0,1,.6,2h1.84v1.1h-2.1v1.41h2v1h-2v1.49h2v1h-2V69.2h2.27ZM283,64.13V62.72h-1.53v1.41Zm0,2.51V65.15h-1.53v1.49Zm0,2.56V67.67h-1.53V69.2Z" style="fill:#595757"/><path d="M278.7,79.91H275v-1h1.48a6.11,6.11,0,0,0-.41-1l1.13-.31a7.44,7.44,0,0,1,.45,1.28h1Zm-.28,9h-1.08v-.54h-1.07v.79h-1.08V84.66h3.23Zm0-7h-3.21v-1h3.21Zm0,1.87h-3.21v-1h3.21Zm-1.09,3.54V85.67h-1.07v1.64Zm9-8.06h-2v.52h-.93a2,2,0,0,1,.26.63h2.4v.8h-2.45v.49h2.27v.74h-2.27v.5h2.27v.72h-2.27v.51h2.59V85h-6.78V82.57a2.89,2.89,0,0,1-.4.39l-.57-.92a8.6,8.6,0,0,0,1.78-2.48l.91.44c-.05.13-.11.26-.18.4h1.53a1.77,1.77,0,0,0-.24-.5l1-.3V77.75h1.09v.53h2Zm.08,9-.43,1a14.76,14.76,0,0,1-3.39-.92,17.48,17.48,0,0,1-3.37.86l-.46-1a13.77,13.77,0,0,0,2.72-.5A5,5,0,0,1,280,86.33h-.56v-.85h6.47v.85A7.92,7.92,0,0,1,284,87.75,14.61,14.61,0,0,0,286.44,88.27Zm-4.23-8.51h-1.1v-.51h-2v-1h2v-.53h1.1Zm.34,1.93V81.2H280.6v.49Zm0,1.24v-.5H280.6v.5Zm0,1.23v-.51H280.6v.51Zm1.87,2.17h-3.09a5.15,5.15,0,0,0,1.41.92A7,7,0,0,0,284.42,86.33Z" style="fill:#595757"/><path d="M279,101.74l-.73.72c-.23-.47-.44-.88-.62-1.22v6.11h-1.16V102a13.32,13.32,0,0,1-1.1,2.21l-.59-1.33a10.39,10.39,0,0,0,1.63-3.49H275V98.3h1.5V96h1.16V98.3h.79v1.1h-.79v.23A15.07,15.07,0,0,1,279,101.74Zm3.22,4.11-.69.9a11.13,11.13,0,0,0-1.13-1,7,7,0,0,1-1.61,1.7l-.82-.73a6.89,6.89,0,0,0,2.21-2.94l1.08.28a3.5,3.5,0,0,1-.31.7A10.43,10.43,0,0,1,282.22,105.85Zm4.26-7.09-.57,1a12,12,0,0,1-1.53-.82v.74h-4v-.71a11.87,11.87,0,0,1-1.2.76l-.66-.9a10.15,10.15,0,0,0,3.6-3l1.08.4-.16.25A9.6,9.6,0,0,0,286.48,98.76ZM282,103.6h-2.93v-3.3H282Zm-1-1v-1.26h-.87v1.26Zm2.93-3.93a8.68,8.68,0,0,1-1.53-1.35,14.82,14.82,0,0,1-1.55,1.35Zm2.55,8-.74.82a12.84,12.84,0,0,0-1.69-1.51,7,7,0,0,1-1.29,1.58l-.87-.69a6.88,6.88,0,0,0,1.91-3l1,.3a4.43,4.43,0,0,1-.28.82A15.69,15.69,0,0,1,286.49,106.59Zm-.73-3h-2.93v-3.3h2.93Zm-1-1v-1.26h-.89v1.26Z" style="fill:#595757"/><path d="M277.55,121.3a29.47,29.47,0,0,1-1.63,4.33l-1-.7a27.91,27.91,0,0,0,1.6-4.32Zm.16-2.27-.74.9a11.71,11.71,0,0,0-2-1.59l.74-.9A12,12,0,0,1,277.71,119Zm.07-3.07-.78.91a11,11,0,0,0-1.87-1.86l.82-.89A12.73,12.73,0,0,1,277.78,116Zm4.31,6.56h-2.95l.84.5a12.3,12.3,0,0,1-1.79,2.65l-.93-.67a12.91,12.91,0,0,0,1.73-2.48h-.91v-8h4Zm-1.1-5.67v-1.27h-1.81v1.27Zm0,2.33v-1.31h-1.81v1.31Zm0,2.29v-1.28h-1.81v1.28Zm1.52,3.5-1,.43a10.66,10.66,0,0,0-1.11-2.11l1-.51A10.47,10.47,0,0,1,282.51,125Zm1.56-1.79H283V115.1h1.08Zm2,1.09a1.15,1.15,0,0,1-.41,1,2.69,2.69,0,0,1-1.4.27l-.83,0-.31-1.07a10.46,10.46,0,0,0,1.65,0,.33.33,0,0,0,.21-.35v-9.89h1.09Z" style="fill:#595757"/><polyline points="251.3 125.47 258.08 118.69 250.54 111.15" style="fill:none;stroke:#83ae9b;stroke-miterlimit:10;stroke-width:0.904493px;stroke-dasharray:3.6179699897766113;mix-blend-mode:multiply"/><polyline points="198.19 125.47 204.97 118.69 197.44 111.15" style="fill:none;stroke:#83ae9b;stroke-miterlimit:10;stroke-width:0.904493px;stroke-dasharray:3.6179699897766113;mix-blend-mode:multiply"/><path d="M347.58,212.87c0,2.32-2.29,4.2-5.13,4.2H324.9c-2.83,0-5.13-1.88-5.13-4.2V77c0-2.31,2.3-4.19,5.13-4.19h17.55c2.84,0,5.13,1.88,5.13,4.19Z" style="fill:none;stroke:#3e3a39;stroke-linecap:round;stroke-linejoin:round;stroke-width:0.6135419999999999px;stroke-dasharray:2.0499401092529297,2.0499401092529297"/><path d="M330.67,116.58l-.7.91a12.79,12.79,0,0,0-2-1.61l.66-.91A11.41,11.41,0,0,1,330.67,116.58Zm.19,2.21a21.6,21.6,0,0,1-1.82,4.27l-1-.71a16.09,16.09,0,0,0,1.74-4.08Zm-.07-5.22-.91.83a9.41,9.41,0,0,0-1.8-2l.8-.78A9.59,9.59,0,0,1,330.79,113.57Zm7.67,8.2a1.19,1.19,0,0,1-.38,1,5,5,0,0,1-2.51.25l-.42-1.08,1,0a3.5,3.5,0,0,0,1.08-.08.28.28,0,0,0,.14-.26V121h-4.63a4.94,4.94,0,0,1-1.13,2l-1-.71a3.65,3.65,0,0,0,.83-1.25,5.84,5.84,0,0,0,.3-2.16V117h6.71Zm.9-5.42H331v-.91h3.42v-.68h-2.85v-.87h2.85v-.61H331.3v-.91h3.16v-.74h1.15v.74h3.49v.91h-3.49v.61h3.18v.87h-3.18v.68h3.75Zm-2,3.76v-.67h-4.48a3.55,3.55,0,0,1,0,.67Zm0-1.55v-.66h-4.47v.66Z" style="fill:#595757"/><path d="M330.88,133.79a5.13,5.13,0,0,1,1.05,2.85c0,1.27-.65,1.87-2,1.81l-.34-1.12.55,0c.42,0,.63-.27.63-.8a4.33,4.33,0,0,0-1.08-2.65,25.42,25.42,0,0,0,.87-2.83h-1.15v10.07h-1.13V130h3.39v1.11C331.49,132,331.22,132.85,330.88,133.79Zm3.46,3.72a12.91,12.91,0,0,1-2.42,3.08l-.85-.84a10.8,10.8,0,0,0,2.32-2.83Zm5.12-4.48-.61.94a9.32,9.32,0,0,1-1-.61v.71h-1.77v1.21h3v1.08h-3v3.51a1.2,1.2,0,0,1-1.37,1.34c-.28,0-.64,0-1.07-.06l-.39-1.1,1.32,0c.23,0,.35-.12.35-.38v-3.34h-2.72v-1.08h2.72v-1.21H333v-.81c-.4.28-.76.52-1.08.71l-.65-.93a11,11,0,0,0,3.82-3.38l1.09.34a.89.89,0,0,1-.13.26A11.94,11.94,0,0,0,339.46,133Zm-2.15-.05a11.3,11.3,0,0,1-1.92-1.81,15.66,15.66,0,0,1-1.95,1.81Zm2.11,7-1,.58a14.9,14.9,0,0,0-1.82-3.14l1-.56A12.57,12.57,0,0,1,339.42,140Z" style="fill:#595757"/><path d="M334,157.12l-.66,1a10.68,10.68,0,0,0-1.71-1.34v2.64h-1.12v-2.64a9.13,9.13,0,0,1-2,1.92l-.51-1.07a8.9,8.9,0,0,0,2.27-2.24h-2.13v-1.09h2.35v-.69h1.12v.69h2.31v1.09h-2.31v.15A15.06,15.06,0,0,1,334,157.12Zm-3.12-4.38-.72.82a6.27,6.27,0,0,0-.49-.87,12.46,12.46,0,0,1-.74,1.05l-.74-.76a6.34,6.34,0,0,0,1.24-2.62l1.06.18c-.17.58-.28,1-.35,1.12C330.48,152.22,330.73,152.58,330.83,152.74Zm3-2.63h-5.51V149h2.23a3.2,3.2,0,0,0-.37-.77l1.13-.33a10.15,10.15,0,0,1,.58,1.1h1.94Zm-.24,2.82-.76.74a7.28,7.28,0,0,0-.57-1,8,8,0,0,1-.44.84l-.74-.86a5.94,5.94,0,0,0,.71-2.33l1,.15a7.37,7.37,0,0,1-.22,1A11.93,11.93,0,0,1,333.55,152.93Zm5.84,5.89h-3.84v.56h-1.13v-6.72a3.75,3.75,0,0,1-.33.56l-.66-1.07A16.71,16.71,0,0,0,335,148l1.06.17a16,16,0,0,1-.55,1.95h1.38a13.24,13.24,0,0,0-.51-1.78l1.1-.21a19.53,19.53,0,0,1,.52,2h1.31v1h-1.48v1.55h1.33v1h-1.33v1.52h1.32v1h-1.32v1.56h1.61Zm-2.7-6.16v-1.55h-1.14v1.55Zm0,2.52v-1.5h-1.14v1.5Zm0,2.6v-1.56h-1.14v1.56Z" style="fill:#595757"/><path d="M333.39,168.25H331.9V169h-1.14v-.78h-2.71v-1h2.71v-1h1.14v1h1.49Zm6,7.64h-5.09v1.67H333.1v-1.67h-5.05v-1.06h5.05v-.9h-3.83v-4.48h8.88v4.48h-3.88v.9h5.09Zm-2.4-4.72v-.74h-6.52v.74Zm0,1.74v-.78h-6.52v.78Zm2.38-4.68h-2.69V169h-1.17v-.77H334v-1h1.51v-1h1.17v1h2.69Z" style="fill:#595757"/><path d="M401,160.84c0,2.31-2.3,4.19-5.13,4.19H378.33c-2.83,0-5.13-1.88-5.13-4.19V25c0-2.32,2.3-4.2,5.13-4.2h17.56c2.83,0,5.13,1.88,5.13,4.2Z" style="fill:none;stroke:#3e3a39;stroke-linecap:round;stroke-linejoin:round;stroke-width:0.6135419999999999px;stroke-dasharray:2.049941301345825,2.049941301345825"/><path d="M384.11,64.55l-.71.9a12.9,12.9,0,0,0-2-1.61l.67-.91A11,11,0,0,1,384.11,64.55Zm.18,2.2A21.35,21.35,0,0,1,382.47,71l-1-.7a16,16,0,0,0,1.75-4.09Zm-.07-5.22-.91.83a9.87,9.87,0,0,0-1.79-2l.79-.78A9.58,9.58,0,0,1,384.22,61.53Zm7.68,8.2a1.21,1.21,0,0,1-.38,1,5.18,5.18,0,0,1-2.51.24l-.42-1.08c.35,0,.67,0,1,0a3.26,3.26,0,0,0,1.08-.09.28.28,0,0,0,.15-.26V69h-4.63A5.29,5.29,0,0,1,385,71l-1-.72a4,4,0,0,0,.83-1.25,5.84,5.84,0,0,0,.3-2.16V64.93h6.71Zm.89-5.42h-8.32V63.4h3.42v-.68H385v-.87h2.85v-.6h-3.16v-.92h3.16v-.74h1.16v.74h3.48v.92h-3.48v.6h3.17v.87h-3.17v.68h3.74Zm-2,3.76V67.4h-4.49a3.61,3.61,0,0,1,0,.67Zm0-1.55v-.66H386.3v.66Z" style="fill:#595757"/><path d="M384.29,82.57l-.71.93A13.4,13.4,0,0,0,381.46,82l.67-1A12.06,12.06,0,0,1,384.29,82.57Zm0,2.24a18.51,18.51,0,0,1-1.79,4.37l-1-.68a19.17,19.17,0,0,0,1.73-4.26Zm.42-5.13-.82.88a11.38,11.38,0,0,0-2.25-1.93l.83-.92A13.86,13.86,0,0,1,384.67,79.68Zm8.25,6.61a6.35,6.35,0,0,1-.37,2.18,1.11,1.11,0,0,1-1.1.57A14.66,14.66,0,0,1,390,89a.89.89,0,0,1-.6-.3,1.11,1.11,0,0,1-.23-.76V83.88h-1.32a6.56,6.56,0,0,1-.91,3.57,4.87,4.87,0,0,1-2.74,1.73l-.68-1a3.71,3.71,0,0,0,3.17-4.32h-2.19V82.77h3.75V80.89h-2a15.82,15.82,0,0,1-1,1.58l-.88-.68A12.14,12.14,0,0,0,386,78.16l1.13.29q-.18.63-.45,1.32h1.51v-2h1.14v2h3.11v1.12h-3.11v1.88h3.46v1.11h-2.52v3.73q0,.3.48.3c.44,0,.69,0,.75-.14a3.24,3.24,0,0,0,.15-.83c0-.47.06-.84.06-1.1Z" style="fill:#595757"/><path d="M386.89,97.68h-1.16v.6h-1.14v-.6h-3.07v-1h3.07V96h1.14v.72h1.16Zm-1.13,7.8a16.09,16.09,0,0,1-3.6,1.76l-.6-.92a17.31,17.31,0,0,0,3.34-1.57Zm7-.9h-5v2.71h-1.15v-2.71h-5v-.93h5V103H383.3v-2.85h-1.51v-.92h1.5v-.75h1.14v.75h1.64V98.5h1.13v.76h2.66v-.75H391v.75h1.56v.92H391v1.36h-4.92v-1.36h-1.64v1.9h7.5v1h-4.16v.62h5Zm-2.9-3.88v-.52h-2.66v.52Zm2.95-3h-3v.6h-1.17v-.6h-1.2v-1h1.2V96h1.17v.72h3Zm.14,8.54-.61,1a23.73,23.73,0,0,0-3.79-1.56l.66-.86A22.7,22.7,0,0,1,393,106.22Z" style="fill:#595757"/><path d="M392.84,115.56h-4.95a11.41,11.41,0,0,1-.63,1.31h4.83v8.68h-1.15V125h-7.52v.55h-1.13v-8.63h3.61a6,6,0,0,0,.69-1.31h-5.1v-1.11h11.35Zm-8.07,8.35v-6h-1.35v6Zm3.67-4.71v-1.29H385.9v1.29Zm0,2.36v-1.31H385.9v1.31Zm0,2.35v-1.33H385.9v1.33Zm2.5,0v-6h-1.37v6Z" style="fill:#595757"/><polyline points="357.8 125.47 364.58 118.69 357.05 111.15" style="fill:none;stroke:#83ae9b;stroke-miterlimit:10;stroke-width:0.904493px;stroke-dasharray:3.6179699897766113;mix-blend-mode:multiply"/><polyline points="414.24 125.47 421.02 118.69 413.49 111.15" style="fill:none;stroke:#83ae9b;stroke-miterlimit:10;stroke-width:0.904493px;stroke-dasharray:3.6179699897766113;mix-blend-mode:multiply"/><polyline points="304.69 125.47 311.47 118.69 303.94 111.15" style="fill:none;stroke:#83ae9b;stroke-miterlimit:10;stroke-width:0.904493px;stroke-dasharray:3.6179699897766113;mix-blend-mode:multiply"/></g></g></svg>